<mxfile host="app.diagrams.net" modified="2023-07-18T05:47:28.642Z" agent="Mozilla/5.0 (Windows NT 10.0; Win64; x64) AppleWebKit/537.36 (KHTML, like Gecko) Chrome/114.0.0.0 Safari/537.36 Edg/114.0.1823.86" etag="O8GDtw4oOo6-Ll-vEIpH" version="21.5.2" type="github">
  <diagram name="第 1 页" id="5qD14jQpGD3jZXneKwM_">
    <mxGraphModel dx="1687" dy="936" grid="1" gridSize="10" guides="1" tooltips="1" connect="1" arrows="1" fold="1" page="1" pageScale="1" pageWidth="827" pageHeight="1169" math="0" shadow="0">
      <root>
        <mxCell id="0" />
        <mxCell id="1" parent="0" />
        <mxCell id="IjJ4piylTX3FqCCItn-Q-26" value="北京/世茂" style="rounded=1;whiteSpace=wrap;html=1;fillColor=none;verticalAlign=bottom;" vertex="1" parent="1">
          <mxGeometry x="559.86" y="800" width="250" height="350" as="geometry" />
        </mxCell>
        <mxCell id="IjJ4piylTX3FqCCItn-Q-20" value="阿里云&lt;br&gt;VPC: Clinet Service" style="rounded=1;whiteSpace=wrap;html=1;fillColor=none;verticalAlign=bottom;" vertex="1" parent="1">
          <mxGeometry x="20" y="800" width="250" height="350" as="geometry" />
        </mxCell>
        <mxCell id="IjJ4piylTX3FqCCItn-Q-23" value="上海" style="rounded=1;whiteSpace=wrap;html=1;fillColor=none;verticalAlign=bottom;" vertex="1" parent="1">
          <mxGeometry x="20" y="70" width="369.86" height="360" as="geometry" />
        </mxCell>
        <mxCell id="IjJ4piylTX3FqCCItn-Q-24" value="广州" style="rounded=1;whiteSpace=wrap;html=1;fillColor=none;verticalAlign=bottom;" vertex="1" parent="1">
          <mxGeometry x="440" y="70" width="369.86" height="360" as="geometry" />
        </mxCell>
        <mxCell id="IjJ4piylTX3FqCCItn-Q-1" value="192.168.48.229" style="fontColor=#0066CC;verticalAlign=top;verticalLabelPosition=bottom;labelPosition=center;align=center;html=1;outlineConnect=0;fillColor=#CCCCCC;strokeColor=#6881B3;gradientColor=none;gradientDirection=north;strokeWidth=2;shape=mxgraph.networks.hub;container=0;" vertex="1" parent="1">
          <mxGeometry x="661.4312345679012" y="990.0043689320388" width="53.39753086419753" height="16.019417475728158" as="geometry" />
        </mxCell>
        <mxCell id="IjJ4piylTX3FqCCItn-Q-2" value="Port3" style="fontColor=#0066CC;verticalAlign=top;verticalLabelPosition=bottom;labelPosition=center;align=center;html=1;outlineConnect=0;fillColor=#CCCCCC;strokeColor=#6881B3;gradientColor=none;gradientDirection=north;strokeWidth=2;shape=mxgraph.networks.usb_stick;container=0;" vertex="1" parent="1">
          <mxGeometry x="676.1155555555556" y="1039.751941747573" width="24.028888888888886" height="53.39805825242719" as="geometry" />
        </mxCell>
        <mxCell id="IjJ4piylTX3FqCCItn-Q-10" style="edgeStyle=orthogonalEdgeStyle;rounded=0;orthogonalLoop=1;jettySize=auto;html=1;" edge="1" parent="1" source="IjJ4piylTX3FqCCItn-Q-1" target="IjJ4piylTX3FqCCItn-Q-2">
          <mxGeometry relative="1" as="geometry" />
        </mxCell>
        <mxCell id="IjJ4piylTX3FqCCItn-Q-3" value="Port2" style="fontColor=#0066CC;verticalAlign=top;verticalLabelPosition=bottom;labelPosition=center;align=center;html=1;outlineConnect=0;fillColor=#CCCCCC;strokeColor=#6881B3;gradientColor=none;gradientDirection=north;strokeWidth=2;shape=mxgraph.networks.usb_stick;container=0;" vertex="1" parent="1">
          <mxGeometry x="627.5238024691358" y="1039.751941747573" width="24.028888888888886" height="53.39805825242719" as="geometry" />
        </mxCell>
        <mxCell id="IjJ4piylTX3FqCCItn-Q-9" style="edgeStyle=orthogonalEdgeStyle;rounded=0;orthogonalLoop=1;jettySize=auto;html=1;" edge="1" parent="1" source="IjJ4piylTX3FqCCItn-Q-1" target="IjJ4piylTX3FqCCItn-Q-3">
          <mxGeometry relative="1" as="geometry" />
        </mxCell>
        <mxCell id="IjJ4piylTX3FqCCItn-Q-4" value="Port1" style="fontColor=#0066CC;verticalAlign=top;verticalLabelPosition=bottom;labelPosition=center;align=center;html=1;outlineConnect=0;fillColor=#CCCCCC;strokeColor=#6881B3;gradientColor=none;gradientDirection=north;strokeWidth=2;shape=mxgraph.networks.usb_stick;container=0;" vertex="1" parent="1">
          <mxGeometry x="580" y="1039.751941747573" width="24.028888888888886" height="53.39805825242719" as="geometry" />
        </mxCell>
        <mxCell id="IjJ4piylTX3FqCCItn-Q-8" style="edgeStyle=orthogonalEdgeStyle;rounded=0;orthogonalLoop=1;jettySize=auto;html=1;" edge="1" parent="1" source="IjJ4piylTX3FqCCItn-Q-1" target="IjJ4piylTX3FqCCItn-Q-4">
          <mxGeometry relative="1" as="geometry" />
        </mxCell>
        <mxCell id="IjJ4piylTX3FqCCItn-Q-5" value="Port4" style="fontColor=#0066CC;verticalAlign=top;verticalLabelPosition=bottom;labelPosition=center;align=center;html=1;outlineConnect=0;fillColor=#CCCCCC;strokeColor=#6881B3;gradientColor=none;gradientDirection=north;strokeWidth=2;shape=mxgraph.networks.usb_stick;container=0;" vertex="1" parent="1">
          <mxGeometry x="724.1733333333333" y="1039.751941747573" width="24.028888888888886" height="53.39805825242719" as="geometry" />
        </mxCell>
        <mxCell id="IjJ4piylTX3FqCCItn-Q-11" style="edgeStyle=orthogonalEdgeStyle;rounded=0;orthogonalLoop=1;jettySize=auto;html=1;" edge="1" parent="1" source="IjJ4piylTX3FqCCItn-Q-1" target="IjJ4piylTX3FqCCItn-Q-5">
          <mxGeometry relative="1" as="geometry" />
        </mxCell>
        <mxCell id="IjJ4piylTX3FqCCItn-Q-7" value="Port5" style="fontColor=#0066CC;verticalAlign=top;verticalLabelPosition=bottom;labelPosition=center;align=center;html=1;outlineConnect=0;fillColor=#CCCCCC;strokeColor=#6881B3;gradientColor=none;gradientDirection=north;strokeWidth=2;shape=mxgraph.networks.usb_stick;container=0;" vertex="1" parent="1">
          <mxGeometry x="772.2311111111111" y="1039.751941747573" width="24.028888888888886" height="53.39805825242719" as="geometry" />
        </mxCell>
        <mxCell id="IjJ4piylTX3FqCCItn-Q-12" style="edgeStyle=orthogonalEdgeStyle;rounded=0;orthogonalLoop=1;jettySize=auto;html=1;" edge="1" parent="1" source="IjJ4piylTX3FqCCItn-Q-1" target="IjJ4piylTX3FqCCItn-Q-7">
          <mxGeometry relative="1" as="geometry" />
        </mxCell>
        <mxCell id="IjJ4piylTX3FqCCItn-Q-13" value="VSW:client-service-sw-vlan2107" style="fontColor=#0066CC;verticalAlign=top;verticalLabelPosition=bottom;labelPosition=center;align=center;html=1;outlineConnect=0;fillColor=#CCCCCC;strokeColor=#6881B3;gradientColor=none;gradientDirection=north;strokeWidth=2;shape=mxgraph.networks.switch;container=0;" vertex="1" parent="1">
          <mxGeometry x="121.43123456790121" y="850" width="53.39753086419753" height="16.019417475728158" as="geometry" />
        </mxCell>
        <mxCell id="IjJ4piylTX3FqCCItn-Q-28" style="edgeStyle=orthogonalEdgeStyle;rounded=0;orthogonalLoop=1;jettySize=auto;html=1;" edge="1" parent="1" source="IjJ4piylTX3FqCCItn-Q-15" target="IjJ4piylTX3FqCCItn-Q-1">
          <mxGeometry relative="1" as="geometry">
            <Array as="points">
              <mxPoint x="688" y="960" />
            </Array>
          </mxGeometry>
        </mxCell>
        <mxCell id="IjJ4piylTX3FqCCItn-Q-32" value="Port3&lt;br&gt;TCP:3422" style="edgeLabel;html=1;align=center;verticalAlign=middle;resizable=0;points=[];" vertex="1" connectable="0" parent="IjJ4piylTX3FqCCItn-Q-28">
          <mxGeometry x="-0.5712" relative="1" as="geometry">
            <mxPoint as="offset" />
          </mxGeometry>
        </mxCell>
        <mxCell id="IjJ4piylTX3FqCCItn-Q-15" value="&lt;div style=&quot;text-align: justify;&quot;&gt;&lt;span style=&quot;background-color: initial;&quot;&gt;公IP:59.110.53.216&lt;/span&gt;&lt;/div&gt;&lt;div style=&quot;text-align: justify;&quot;&gt;&lt;span style=&quot;background-color: initial;&quot;&gt;私IP:10.101.7.101&lt;/span&gt;&lt;/div&gt;" style="fontColor=#0066CC;verticalAlign=top;verticalLabelPosition=bottom;labelPosition=center;align=center;html=1;outlineConnect=0;fillColor=#CCCCCC;strokeColor=#6881B3;gradientColor=none;gradientDirection=north;strokeWidth=2;shape=mxgraph.networks.virtual_server;container=0;fontStyle=0;labelBackgroundColor=none;labelBorderColor=none;" vertex="1" parent="1">
          <mxGeometry x="118.76135802469135" y="908.7378640776699" width="58.737283950617275" height="64.07766990291263" as="geometry" />
        </mxCell>
        <mxCell id="IjJ4piylTX3FqCCItn-Q-16" style="edgeStyle=orthogonalEdgeStyle;rounded=0;orthogonalLoop=1;jettySize=auto;html=1;" edge="1" parent="1" source="IjJ4piylTX3FqCCItn-Q-13" target="IjJ4piylTX3FqCCItn-Q-15">
          <mxGeometry relative="1" as="geometry" />
        </mxCell>
        <mxCell id="IjJ4piylTX3FqCCItn-Q-30" style="edgeStyle=orthogonalEdgeStyle;rounded=0;orthogonalLoop=1;jettySize=auto;html=1;" edge="1" parent="1" source="IjJ4piylTX3FqCCItn-Q-21" target="IjJ4piylTX3FqCCItn-Q-29">
          <mxGeometry relative="1" as="geometry">
            <mxPoint x="150" y="850" as="targetPoint" />
            <Array as="points">
              <mxPoint x="110" y="605" />
            </Array>
          </mxGeometry>
        </mxCell>
        <mxCell id="IjJ4piylTX3FqCCItn-Q-33" value="TCP:475" style="edgeLabel;html=1;align=center;verticalAlign=middle;resizable=0;points=[];" vertex="1" connectable="0" parent="IjJ4piylTX3FqCCItn-Q-30">
          <mxGeometry x="0.9101" y="1" relative="1" as="geometry">
            <mxPoint x="-18" y="1" as="offset" />
          </mxGeometry>
        </mxCell>
        <mxCell id="IjJ4piylTX3FqCCItn-Q-21" value="Infosys" style="fontColor=#0066CC;verticalAlign=top;verticalLabelPosition=bottom;labelPosition=center;align=center;html=1;outlineConnect=0;fillColor=#CCCCCC;strokeColor=#6881B3;gradientColor=none;gradientDirection=north;strokeWidth=2;shape=mxgraph.networks.pc;" vertex="1" parent="1">
          <mxGeometry x="60.14" y="100" width="100" height="70" as="geometry" />
        </mxCell>
        <mxCell id="IjJ4piylTX3FqCCItn-Q-31" style="edgeStyle=orthogonalEdgeStyle;rounded=0;orthogonalLoop=1;jettySize=auto;html=1;" edge="1" parent="1" source="IjJ4piylTX3FqCCItn-Q-22" target="IjJ4piylTX3FqCCItn-Q-29">
          <mxGeometry relative="1" as="geometry">
            <Array as="points">
              <mxPoint x="530" y="605" />
            </Array>
          </mxGeometry>
        </mxCell>
        <mxCell id="IjJ4piylTX3FqCCItn-Q-34" value="TCP:475" style="edgeLabel;html=1;align=center;verticalAlign=middle;resizable=0;points=[];" vertex="1" connectable="0" parent="IjJ4piylTX3FqCCItn-Q-31">
          <mxGeometry x="0.8956" y="-1" relative="1" as="geometry">
            <mxPoint x="14" y="1" as="offset" />
          </mxGeometry>
        </mxCell>
        <mxCell id="IjJ4piylTX3FqCCItn-Q-22" value="Infosys" style="fontColor=#0066CC;verticalAlign=top;verticalLabelPosition=bottom;labelPosition=center;align=center;html=1;outlineConnect=0;fillColor=#CCCCCC;strokeColor=#6881B3;gradientColor=none;gradientDirection=north;strokeWidth=2;shape=mxgraph.networks.pc;" vertex="1" parent="1">
          <mxGeometry x="480" y="100" width="100" height="70" as="geometry" />
        </mxCell>
        <mxCell id="IjJ4piylTX3FqCCItn-Q-35" style="edgeStyle=orthogonalEdgeStyle;rounded=0;orthogonalLoop=1;jettySize=auto;html=1;" edge="1" parent="1" source="IjJ4piylTX3FqCCItn-Q-29" target="IjJ4piylTX3FqCCItn-Q-15">
          <mxGeometry relative="1" as="geometry">
            <Array as="points">
              <mxPoint x="370" y="941" />
            </Array>
          </mxGeometry>
        </mxCell>
        <mxCell id="IjJ4piylTX3FqCCItn-Q-36" value="TCP:475" style="edgeLabel;html=1;align=center;verticalAlign=middle;resizable=0;points=[];" vertex="1" connectable="0" parent="IjJ4piylTX3FqCCItn-Q-35">
          <mxGeometry x="-0.373" relative="1" as="geometry">
            <mxPoint as="offset" />
          </mxGeometry>
        </mxCell>
        <mxCell id="IjJ4piylTX3FqCCItn-Q-29" value="" style="html=1;outlineConnect=0;fillColor=#CCCCCC;strokeColor=#6881B3;gradientColor=none;gradientDirection=north;strokeWidth=2;shape=mxgraph.networks.cloud;fontColor=#ffffff;" vertex="1" parent="1">
          <mxGeometry x="320" y="580" width="90" height="50" as="geometry" />
        </mxCell>
      </root>
    </mxGraphModel>
  </diagram>
</mxfile>
